<svg width="129" height="56" viewBox="0 0 129 56" fill="none" xmlns="http://www.w3.org/2000/svg">
<path d="M119.716 55.984L108.869 55.9999L99.1944 44.4971L88.0002 55.984H78.8809L95.0189 39.5226L82.1824 24.2346L92.8288 24.2413L100.861 33.5959L110.171 24.2413H119.288L105.037 38.5715L119.716 55.984Z" fill="#0063AB"/>
<path d="M50.5355 24.1987L64.6463 44.0923L64.5717 24.2627L73.7271 24.2347V55.9959H63.2188L48.6034 36.2502L48.6069 55.9959H39.4355V24.2055L50.5355 24.1987Z" fill="#9CA1A4"/>
<path d="M19.8821 38.9424L18.5894 37.3145L31.5091 24.2095H22.2781L9.11929 37.5837V24.2442L0.0232699 24.2413L0 55.9824L9.11929 55.9841V46.9182L12.7217 43.2691L23.4233 55.9841H34.311L19.8821 38.9424Z" fill="#369D3A"/>
<path d="M119.286 22.385C103.462 8.27758 82.8028 -0.25 59.8645 -0.25C59.8515 -0.25 59.8385 -0.25 59.8271 -0.25V5.50691C78.8184 5.5167 96.1523 11.7629 110.17 22.3763L119.286 22.385Z" fill="#0063AB"/>
<path d="M0.00585938 22.4023H9.13513C23.1631 11.7793 40.7935 5.50627 59.7812 5.50627C59.7958 5.50627 59.8109 5.50691 59.8275 5.50691V-0.25C36.9254 -0.240586 15.8204 8.30369 0.00585938 22.4023Z" fill="#369D3A"/>
<path d="M124.943 25.6195C124.544 25.3968 124.222 25.0812 123.982 24.6742C123.741 24.266 123.619 23.824 123.619 23.3479C123.619 22.8819 123.736 22.446 123.968 22.0394C124.201 21.6326 124.52 21.314 124.927 21.0817C125.336 20.8494 125.77 20.7337 126.232 20.7337C126.693 20.7337 127.127 20.8494 127.536 21.0817C127.943 21.314 128.264 21.6326 128.495 22.0394C128.728 22.446 128.844 22.8819 128.844 23.3479C128.846 23.824 128.728 24.266 128.483 24.6742C128.241 25.0812 127.921 25.3968 127.52 25.6195C127.121 25.8433 126.691 25.9546 126.232 25.9546C125.772 25.9546 125.342 25.8433 124.943 25.6195ZM127.749 26.0255C128.222 25.7619 128.6 25.3879 128.885 24.9069C129.169 24.4265 129.311 23.9066 129.311 23.3479C129.311 22.7996 129.175 22.2864 128.9 21.8069C128.625 21.3285 128.248 20.9528 127.768 20.6797C127.288 20.4065 126.776 20.2698 126.232 20.2698C125.689 20.2698 125.18 20.4065 124.699 20.6797C124.216 20.9528 123.84 21.3285 123.567 21.8069C123.292 22.2864 123.156 22.7996 123.156 23.3479C123.156 23.9066 123.3 24.4265 123.583 24.9069C123.867 25.3879 124.243 25.7619 124.716 26.0255C125.187 26.2906 125.693 26.4222 126.232 26.4222C126.77 26.4222 127.276 26.2906 127.749 26.0255ZM126.098 23.6625C126.16 23.6625 126.261 23.7854 126.4 24.0326L126.524 24.2674L127.043 25.2592H127.725L127.096 24.0924C126.946 23.8153 126.805 23.6353 126.673 23.5539C126.925 23.4465 127.112 23.2944 127.233 23.0977C127.356 22.9002 127.418 22.6941 127.418 22.4763C127.418 22.289 127.373 22.1159 127.288 21.9569C127.2 21.7974 127.08 21.6743 126.929 21.5881C126.778 21.5018 126.557 21.4595 126.262 21.4595H125.053V25.2592H125.652V23.6625H126.098ZM126.105 21.9192C126.315 21.9192 126.462 21.9482 126.543 22.0051C126.627 22.0624 126.693 22.134 126.736 22.2203C126.778 22.3066 126.801 22.4034 126.801 22.5098C126.801 22.684 126.747 22.8441 126.641 22.9884C126.532 23.1336 126.342 23.2053 126.067 23.2053H125.652V21.9192H126.105Z" fill="#0063AB"/>
</svg>
