<svg width="78" height="73" viewBox="0 0 78 73" fill="none" xmlns="http://www.w3.org/2000/svg">
<g opacity="0.7">
<circle cx="39.299" cy="25.5841" r="25.5841" fill="#FE0000"/>
<circle cx="52.2619" cy="47.4158" r="25.5841" fill="#0000FE"/>
<path fill-rule="evenodd" clip-rule="evenodd" d="M39.2966 51.1683C53.4263 51.1683 64.8807 39.7139 64.8807 25.5842C64.8807 25.4406 64.8795 25.2973 64.8771 25.1543C61.1538 23.0395 56.8479 21.8318 52.2599 21.8318C38.1302 21.8318 26.6758 33.2862 26.6758 47.4159C26.6758 47.5595 26.677 47.7028 26.6793 47.8459C30.4026 49.9607 34.7086 51.1683 39.2966 51.1683Z" fill="#FF00FE"/>
<circle cx="26.3361" cy="47.4158" r="25.5841" fill="#00FF01"/>
<path fill-rule="evenodd" clip-rule="evenodd" d="M13.7184 25.1544C17.4417 23.0396 21.7476 21.8319 26.3356 21.8319C40.4653 21.8319 51.9197 33.2863 51.9197 47.416C51.9197 47.5596 51.9186 47.7029 51.9162 47.846C48.1929 49.9608 43.887 51.1685 39.299 51.1685C25.1692 51.1685 13.7148 39.7141 13.7148 25.5843C13.7148 25.4407 13.716 25.2974 13.7184 25.1544Z" fill="#FFFF00"/>
<path fill-rule="evenodd" clip-rule="evenodd" d="M39.2966 69.4773C46.8491 65.0298 51.9173 56.8147 51.9173 47.4158C51.9173 38.017 46.8491 29.8018 39.2966 25.3544C31.744 29.8018 26.6758 38.017 26.6758 47.4158C26.6758 56.8147 31.744 65.0298 39.2966 69.4773Z" fill="#00FFFF"/>
<path fill-rule="evenodd" clip-rule="evenodd" d="M26.6813 47.8458C30.4046 49.9606 34.7105 51.1683 39.2985 51.1683L39.3519 51.1682C39.6206 51.1677 39.8884 51.163 40.1551 51.1542C44.4221 51.0138 48.4248 49.8284 51.9154 47.8458C51.9178 47.7028 51.919 47.5594 51.919 47.4158C51.919 38.0171 46.8508 29.802 39.2983 25.3545C32.2179 29.524 27.321 37.0049 26.7365 45.6681C26.6975 46.2456 26.6777 46.8284 26.6777 47.4159C26.6777 47.5535 26.6788 47.691 26.681 47.8281C26.6811 47.834 26.6812 47.8399 26.6813 47.8458Z" fill="white"/>
</g>
</svg>
