<svg width="11" height="16" viewBox="0 0 11 16" fill="none" xmlns="http://www.w3.org/2000/svg">
  <g clip-path="url(#clip0_1708_8955)">
    <path
      fill-rule="evenodd"
      clip-rule="evenodd"
      d="M1.05754 2.64556C1.24625 2.45148 1.55219 2.45148 1.7409 2.64556L5.49935 6.51104L9.2578 2.64556C9.4465 2.45148 9.75245 2.45148 9.94115 2.64556C10.1299 2.83963 10.1299 3.1543 9.94115 3.34837L5.79808 7.60943C5.63447 7.7777 5.36423 7.7777 5.20061 7.60943L1.05754 3.34837C0.86884 3.1543 0.86884 2.83963 1.05754 2.64556Z"
      fill="white"
    />
  </g>
  <g clip-path="url(#clip1_1708_8955)">
    <path
      fill-rule="evenodd"
      clip-rule="evenodd"
      d="M1.05754 8.64556C1.24625 8.45148 1.55219 8.45148 1.7409 8.64556L5.49935 12.511L9.2578 8.64556C9.4465 8.45148 9.75245 8.45148 9.94115 8.64556C10.1299 8.83963 10.1299 9.1543 9.94115 9.34837L5.79808 13.6094C5.63447 13.7777 5.36423 13.7777 5.20061 13.6094L1.05754 9.34837C0.86884 9.1543 0.86884 8.83963 1.05754 8.64556Z"
      fill="white"
    />
  </g>
  <defs>
    <clipPath id="clip0_1708_8955">
      <rect width="10" height="10" fill="white" transform="translate(0.5)" />
    </clipPath>
    <clipPath id="clip1_1708_8955">
      <rect width="10" height="10" fill="white" transform="translate(0.5 6)" />
    </clipPath>
  </defs>
</svg>
