<svg width="417" height="175" viewBox="0 0 417 175" fill="none" xmlns="http://www.w3.org/2000/svg">
<path fill-rule="evenodd" clip-rule="evenodd" d="M290.1 18.5473C282.555 10.9936 272.33 6.74702 261.667 6.73762C251.004 6.7533 240.781 11.0061 233.241 18.5641C225.698 26.1248 221.455 36.3758 221.442 47.0683V127.73C221.944 138.088 226.402 147.855 233.893 155.008C241.383 162.161 251.333 166.151 261.679 166.151C272.025 166.151 281.974 162.161 289.465 155.008C296.956 147.855 301.414 138.088 301.915 127.73V47.0683C301.903 36.3676 297.653 26.1094 290.1 18.5473ZM228.488 13.7999C237.289 4.97835 249.221 0.0157022 261.667 1.34103e-05C274.113 0.00941874 286.047 4.96583 294.853 13.7831C303.667 22.6088 308.625 34.5807 308.637 47.0683V127.73C308.637 140.213 303.69 152.185 294.884 161.012C286.077 169.839 274.133 174.798 261.679 174.798C249.225 174.798 237.281 169.839 228.474 161.012C219.668 152.185 214.72 140.213 214.72 127.73V47.0683C214.733 34.5889 219.684 22.6242 228.488 13.7999ZM261.667 1.34103e-05L261.679 0H261.631L261.667 1.34103e-05ZM155.644 104.907C154.501 104.904 153.378 104.61 152.381 104.052C151.383 103.494 150.544 102.691 149.942 101.717C149.34 100.744 148.996 99.6326 148.942 98.4887C148.888 97.3448 149.125 96.206 149.632 95.1797L175.147 44.0783C175.495 43.2161 176.018 42.4356 176.683 41.786C177.347 41.1364 178.138 40.6317 179.007 40.3037C179.876 39.9757 180.802 39.8316 181.729 39.8804C182.656 39.9292 183.563 40.1698 184.392 40.5872C185.222 41.0045 185.956 41.5896 186.549 42.3054C187.142 43.0212 187.58 43.8523 187.837 44.7464C188.093 45.6404 188.162 46.578 188.04 47.5002C187.917 48.4223 187.605 49.3089 187.123 50.1042L161.656 101.206C161.09 102.317 160.23 103.25 159.169 103.903C158.108 104.556 156.889 104.903 155.644 104.907ZM137.337 133.498C138.399 134.16 139.625 134.512 140.875 134.515V134.467C142.018 134.465 143.141 134.171 144.139 133.613C145.136 133.055 145.976 132.251 146.577 131.278C147.179 130.305 147.523 129.193 147.577 128.049C147.632 126.906 147.394 125.767 146.887 124.74L106.651 44.0791C106.262 43.2772 105.719 42.5605 105.052 41.9706C104.385 41.3806 103.609 40.9292 102.766 40.6423C101.924 40.3555 101.034 40.239 100.147 40.2996C99.2594 40.3602 98.3929 40.5967 97.5975 40.9953C96.802 41.394 96.0934 41.9469 95.5127 42.622C94.932 43.2972 94.4907 44.0811 94.2144 44.9284C93.9381 45.7757 93.8323 46.6695 93.9031 47.5581C93.9739 48.4467 94.2199 49.3124 94.6269 50.105L134.864 130.766C135.419 131.89 136.275 132.836 137.337 133.498ZM26.8402 94.1358C19.7218 94.1358 12.8948 91.3014 7.86132 86.2561C2.8278 81.2108 0 74.368 0 67.2329C0 60.0978 2.8278 53.2549 7.86132 48.2096C12.8948 43.1643 19.7218 40.3299 26.8402 40.3299H60.355C62.1378 40.3299 63.8475 41.0398 65.1081 42.3033C66.3687 43.5669 67.0769 45.2806 67.0769 47.0675C67.0769 48.8544 66.3687 50.5682 65.1081 51.8317C63.8475 53.0953 62.1378 53.8051 60.355 53.8051H26.8402C25.0108 53.6962 23.1785 53.9633 21.4559 54.59C19.7332 55.2168 18.1566 56.1899 16.8229 57.4497C15.4891 58.7095 14.4265 60.2293 13.7001 61.9157C12.9737 63.6022 12.5991 65.4197 12.5991 67.2566C12.5991 69.0935 12.9737 70.911 13.7001 72.5975C14.4265 74.2839 15.4891 75.8037 16.8229 77.0635C18.1566 78.3233 19.7332 79.2964 21.4559 79.9232C23.1785 80.5499 25.0108 80.817 26.8402 80.7081C27.7672 80.6299 28.7003 80.7454 29.5804 81.0473C30.4605 81.3492 31.2685 81.831 31.9533 82.462C32.6381 83.0931 33.1848 83.8598 33.5587 84.7135C33.9326 85.5673 34.1257 86.4895 34.1257 87.4219C34.1257 88.3544 33.9326 89.2766 33.5587 90.1304C33.1848 90.9841 32.6381 91.7508 31.9533 92.3819C31.2685 93.0129 30.4605 93.4947 29.5804 93.7966C28.7003 94.0985 27.7672 94.214 26.8402 94.1358ZM53.6805 134.512H6.72189C4.93914 134.512 3.2294 133.803 1.9688 132.539C0.708198 131.275 0 129.562 0 127.775C0 125.988 0.708198 124.274 1.9688 123.011C3.2294 121.747 4.93914 121.037 6.72189 121.037H53.6805C57.1019 120.833 60.3165 119.328 62.6671 116.827C65.0178 114.327 66.3269 111.021 66.3269 107.586C66.3269 104.15 65.0178 100.845 62.6671 98.3443C60.3165 95.844 57.1019 94.3381 53.6805 94.1343C52.7535 94.2125 51.8205 94.0969 50.9403 93.795C50.0602 93.4931 49.2522 93.0114 48.5674 92.3803C47.8826 91.7493 47.336 90.9826 46.962 90.1288C46.5881 89.2751 46.395 88.3528 46.395 87.4204C46.395 86.488 46.5881 85.5657 46.962 84.712C47.336 83.8582 47.8826 83.0916 48.5674 82.4605C49.2522 81.8294 50.0602 81.3477 50.9403 81.0458C51.8205 80.7439 52.7535 80.6284 53.6805 80.7065C60.799 80.7065 67.6259 83.5409 72.6594 88.5862C77.6929 93.6315 80.5207 100.474 80.5207 107.609C80.5207 114.745 77.6929 121.587 72.6594 126.633C67.6259 131.678 60.799 134.512 53.6805 134.512ZM342.155 53.8051H409.28C411.062 53.8051 412.772 53.0953 414.033 51.8317C415.293 50.5682 416.001 48.8544 416.001 47.0675C416.001 45.2806 415.293 43.5669 414.033 42.3033C412.772 41.0398 411.062 40.3299 409.28 40.3299H342.155C340.373 40.3299 338.663 41.0398 337.402 42.3033C336.142 43.5669 335.433 45.2806 335.433 47.0675C335.433 48.8544 336.142 50.5682 337.402 51.8317C338.663 53.0953 340.373 53.8051 342.155 53.8051ZM375.714 134.512C373.973 134.45 372.323 133.714 371.113 132.457C369.904 131.2 369.228 129.521 369.229 127.774V73.9684C369.151 73.0393 369.266 72.1041 369.567 71.2219C369.869 70.3397 370.349 69.5298 370.979 68.8434C371.608 68.157 372.373 67.6091 373.225 67.2343C374.077 66.8595 374.997 66.6659 375.927 66.6659C376.857 66.6659 377.778 66.8595 378.629 67.2343C379.481 67.6091 380.246 68.157 380.876 68.8434C381.505 69.5298 381.986 70.3397 382.287 71.2219C382.588 72.1041 382.703 73.0393 382.625 73.9684V127.774C382.626 128.675 382.446 129.567 382.096 130.397C381.747 131.227 381.235 131.979 380.59 132.607C379.946 133.235 379.182 133.727 378.345 134.055C377.507 134.382 376.613 134.537 375.714 134.512ZM261.634 73.9709C256.325 73.9709 251.136 72.3931 246.722 69.4369C242.308 66.4808 238.868 62.2791 236.837 57.3632C234.805 52.4474 234.274 47.0381 235.309 41.8194C236.345 36.6008 238.901 31.8071 242.655 28.0447C246.409 24.2822 251.191 21.72 256.397 20.6819C261.604 19.6438 267.001 20.1766 271.905 22.2128C276.81 24.2491 281.001 27.6973 283.951 32.1214C286.9 36.5456 288.474 41.747 288.474 47.0679C288.474 54.203 285.646 61.0459 280.613 66.0912C275.579 71.1365 268.752 73.9709 261.634 73.9709ZM261.634 33.6402C258.973 33.6402 256.372 34.4317 254.16 35.9145C251.948 37.3973 250.225 39.5046 249.209 41.9697C248.193 44.4347 247.929 47.1465 248.452 49.7618C248.974 52.377 250.26 54.7779 252.144 56.6606C254.029 58.5432 256.429 59.8228 259.04 60.3374C261.651 60.852 264.356 60.5784 266.811 59.5512C269.267 58.524 271.363 56.7894 272.835 54.5672C274.306 52.345 275.087 49.7351 275.078 47.0679C275.078 45.3006 274.73 43.5506 274.053 41.9184C273.377 40.2861 272.386 38.8038 271.137 37.5563C269.888 36.3088 268.406 35.3207 266.775 34.6487C265.144 33.9766 263.397 33.6339 261.634 33.6402ZM256.911 152.689C258.161 153.952 259.859 154.667 261.633 154.679C262.516 154.679 263.39 154.505 264.206 154.167C265.021 153.828 265.762 153.332 266.387 152.706C267.011 152.08 267.506 151.338 267.844 150.52C268.181 149.703 268.355 148.827 268.355 147.942V107.611C268.433 106.682 268.318 105.747 268.017 104.865C267.716 103.982 267.235 103.173 266.605 102.486C265.976 101.8 265.211 101.252 264.359 100.877C263.507 100.502 262.587 100.309 261.657 100.309C260.727 100.309 259.807 100.502 258.955 100.877C258.103 101.252 257.338 101.8 256.709 102.486C256.079 103.173 255.598 103.982 255.297 104.865C254.996 105.747 254.881 106.682 254.959 107.611V147.942C254.959 149.721 255.66 151.427 256.911 152.689Z" fill="#EFEFEF"/>
</svg>
