<svg width="66" height="120" viewBox="0 0 66 120" fill="none" xmlns="http://www.w3.org/2000/svg">
<path fill-rule="evenodd" clip-rule="evenodd" d="M33.0381 5.45204C40.3482 5.45842 47.3579 8.33768 52.5305 13.4593C57.7087 18.5866 60.6221 25.5418 60.6307 32.7971V87.4874C60.287 94.5103 57.2307 101.133 52.0953 105.983C46.9599 110.833 40.139 113.538 33.0462 113.538C25.9535 113.538 19.1326 110.833 13.9972 105.983C8.86177 101.133 5.80549 94.5103 5.46174 87.4874V32.7971C5.47033 25.5474 8.37931 18.597 13.5505 13.4706C18.7199 8.34617 25.7278 5.46268 33.0381 5.45204ZM33.0344 0.883803C24.5033 0.895413 16.3247 4.26009 10.292 10.2404C4.25659 16.2235 0.862107 24.3358 0.853516 32.7971V87.4874C0.853516 95.9513 4.24523 104.069 10.2825 110.054C16.3198 116.038 24.5082 119.401 33.0462 119.401C41.5843 119.401 49.7726 116.038 55.8099 110.054C61.8472 104.069 65.239 95.9513 65.239 87.4874V32.7971C65.2304 24.3302 61.8314 16.213 55.789 10.229C49.7514 4.24987 41.568 0.889206 33.0344 0.883803ZM33.0344 0.883803L33.0138 0.883789H33.0462L33.0344 0.883803ZM33.0127 51.0377C29.3735 51.0377 25.8159 49.9679 22.79 47.9636C19.764 45.9592 17.4056 43.1104 16.0129 39.7773C14.6202 36.4443 14.2558 32.7767 14.9658 29.2383C15.6758 25.6999 17.4283 22.4497 20.0016 19.8987C22.575 17.3477 25.8536 15.6104 29.423 14.9066C32.9923 14.2028 36.692 14.564 40.0543 15.9446C43.4165 17.3252 46.2903 19.6632 48.3122 22.6629C50.334 25.6625 51.4132 29.1892 51.4132 32.7969C51.4132 37.6347 49.4746 42.2743 46.0238 45.6951C42.5731 49.1159 37.8928 51.0377 33.0127 51.0377ZM33.0127 23.6926C31.1885 23.6926 29.4053 24.2293 27.889 25.2346C26.3726 26.24 25.1914 27.6688 24.4948 29.3402C23.7982 31.0115 23.6175 32.8502 23.9758 34.6234C24.3341 36.3965 25.2151 38.0245 26.5073 39.3009C27.7995 40.5774 29.4447 41.445 31.2347 41.7939C33.0246 42.1428 34.8787 41.9573 36.5623 41.2608C38.2458 40.5644 39.6829 39.3883 40.6917 37.8816C41.7005 36.3749 42.2356 34.6053 42.2292 32.7969C42.2292 31.5986 41.9906 30.4121 41.527 29.3054C41.0634 28.1987 40.384 27.1936 39.5278 26.3478C38.6715 25.5019 37.6553 24.832 36.5373 24.3764C35.4193 23.9207 34.2215 23.6883 33.0127 23.6926ZM29.7753 104.41C30.6326 105.266 31.7964 105.751 33.0129 105.76C33.6181 105.76 34.2173 105.642 34.7764 105.412C35.3355 105.182 35.8435 104.846 36.2714 104.422C36.6993 103.998 37.0388 103.494 37.2704 102.94C37.502 102.385 37.6211 101.791 37.6211 101.192V73.8464C37.6746 73.2164 37.5956 72.5823 37.3891 71.9842C37.1826 71.3861 36.8531 70.8369 36.4215 70.3715C35.9899 69.9061 35.4655 69.5346 34.8816 69.2805C34.2977 69.0264 33.6669 68.8951 33.0291 68.8951C32.3914 68.8951 31.7606 69.0264 31.1767 69.2805C30.5928 69.5346 30.0684 69.9061 29.6368 70.3715C29.2051 70.8369 28.8757 71.3861 28.6692 71.9842C28.4627 72.5823 28.3837 73.2164 28.4371 73.8464V101.192C28.4371 102.398 28.9181 103.555 29.7753 104.41Z" fill="white"/>
</svg>
