<svg width="72" height="30" viewBox="0 0 72 30" fill="none" xmlns="http://www.w3.org/2000/svg">
  <path
    fill-rule="evenodd"
    clip-rule="evenodd"
    d="M50.0125 3.14544C48.7248 1.8644 46.9797 1.14423 45.1598 1.14263C43.3399 1.14529 41.5952 1.86652 40.3082 3.14828C39.0208 4.43051 38.2966 6.16897 38.2945 7.98232V21.6617C38.3801 23.4183 39.1409 25.0748 40.4194 26.2878C41.6979 27.5009 43.396 28.1775 45.1618 28.1775C46.9276 28.1775 48.6257 27.5009 49.9042 26.2878C51.1827 25.0748 51.9436 23.4183 52.0291 21.6617V7.98232C52.027 6.16758 51.3017 4.4279 50.0125 3.14544ZM39.497 2.34032C40.9991 0.84428 43.0356 0.00266344 45.1598 2.27667e-06C47.2839 0.00159818 49.3209 0.842156 50.8237 2.33748C52.3281 3.83422 53.1742 5.86453 53.1764 7.98232V21.6617C53.1764 23.7787 52.332 25.8091 50.829 27.306C49.3259 28.803 47.2874 29.644 45.1618 29.644C43.0362 29.644 40.9977 28.803 39.4947 27.306C37.9916 25.8091 37.1472 23.7787 37.1472 21.6617V7.98232C37.1494 5.86593 37.9945 3.83683 39.497 2.34032ZM45.1598 2.27667e-06L45.1618 0H45.1537L45.1598 2.27667e-06ZM27.0644 17.7911C26.8694 17.7907 26.6777 17.7409 26.5075 17.6463C26.3372 17.5516 26.1939 17.4153 26.0912 17.2502C25.9885 17.0851 25.9298 16.8967 25.9205 16.7027C25.9113 16.5087 25.9518 16.3156 26.0383 16.1415L30.393 7.47524C30.4525 7.32902 30.5418 7.19666 30.6552 7.08649C30.7685 6.97632 30.9036 6.89072 31.0518 6.8351C31.2001 6.77948 31.3583 6.75504 31.5165 6.76331C31.6747 6.77159 31.8294 6.8124 31.971 6.88318C32.1126 6.95396 32.2379 7.05317 32.339 7.17457C32.4402 7.29597 32.5151 7.43691 32.5588 7.58854C32.6026 7.74016 32.6144 7.89917 32.5935 8.05555C32.5725 8.21193 32.5192 8.3623 32.4371 8.49718L28.0905 17.1635C27.9939 17.3519 27.847 17.5102 27.666 17.6209C27.485 17.7317 27.2768 17.7905 27.0644 17.7911ZM23.9398 22.64C24.1211 22.7523 24.3302 22.812 24.5437 22.8124V22.8043C24.7387 22.804 24.9304 22.7541 25.1006 22.6595C25.2709 22.5648 25.4142 22.4285 25.5169 22.2634C25.6195 22.0983 25.6783 21.9099 25.6875 21.7159C25.6968 21.5219 25.6563 21.3288 25.5697 21.1547L18.7024 7.47537C18.6361 7.33938 18.5434 7.21783 18.4296 7.11779C18.3158 7.01774 18.1832 6.94118 18.0395 6.89254C17.8958 6.84389 17.7438 6.82414 17.5924 6.83441C17.441 6.84469 17.2931 6.88479 17.1573 6.9524C17.0216 7.02001 16.9006 7.11378 16.8015 7.22827C16.7024 7.34277 16.6271 7.47571 16.5799 7.61941C16.5327 7.7631 16.5147 7.91469 16.5268 8.06538C16.5389 8.21608 16.5808 8.36289 16.6503 8.4973L23.5176 22.1767C23.6123 22.3672 23.7586 22.5277 23.9398 22.64ZM5.08091 15.9645C3.86597 15.9645 2.7008 15.4838 1.84172 14.6282C0.98263 13.7725 0.5 12.6121 0.5 11.402C0.5 10.192 0.98263 9.0315 1.84172 8.17587C2.7008 7.32024 3.86597 6.83955 5.08091 6.83955H10.801C11.1052 6.83955 11.3971 6.95994 11.6122 7.17422C11.8274 7.3885 11.9482 7.67914 11.9482 7.98218C11.9482 8.28522 11.8274 8.57586 11.6122 8.79014C11.3971 9.00443 11.1052 9.12481 10.801 9.12481H5.08091C4.76868 9.10633 4.45595 9.15163 4.16194 9.25792C3.86793 9.36421 3.59885 9.52925 3.37121 9.74289C3.14358 9.95654 2.96221 10.2143 2.83824 10.5003C2.71427 10.7863 2.65032 11.0945 2.65032 11.406C2.65032 11.7176 2.71427 12.0258 2.83824 12.3118C2.96221 12.5978 3.14358 12.8556 3.37121 13.0692C3.59885 13.2828 3.86793 13.4479 4.16194 13.5542C4.45595 13.6605 4.76868 13.7058 5.08091 13.6873C5.23911 13.674 5.39836 13.6936 5.54857 13.7448C5.69879 13.796 5.83669 13.8777 5.95357 13.9847C6.07045 14.0918 6.16375 14.2218 6.22757 14.3666C6.29139 14.5114 6.32434 14.6678 6.32434 14.8259C6.32434 14.984 6.29139 15.1404 6.22757 15.2852C6.16375 15.43 6.07045 15.56 5.95357 15.667C5.83669 15.7741 5.69879 15.8558 5.54857 15.907C5.39836 15.9582 5.23911 15.9778 5.08091 15.9645ZM9.66181 22.812H1.64725C1.34298 22.812 1.05117 22.6916 0.836021 22.4773C0.62087 22.263 0.5 21.9724 0.5 21.6693C0.5 21.3663 0.62087 21.0757 0.836021 20.8614C1.05117 20.6471 1.34298 20.5267 1.64725 20.5267H9.66181C10.2458 20.4921 10.7944 20.2368 11.1956 19.8127C11.5968 19.3887 11.8202 18.8281 11.8202 18.2455C11.8202 17.6628 11.5968 17.1022 11.1956 16.6782C10.7944 16.2542 10.2458 15.9988 9.66181 15.9642C9.50361 15.9775 9.34436 15.9579 9.19415 15.9067C9.04393 15.8555 8.90603 15.7738 8.78915 15.6668C8.67227 15.5598 8.57897 15.4297 8.51515 15.2849C8.45133 15.1402 8.41838 14.9838 8.41838 14.8256C8.41838 14.6675 8.45133 14.5111 8.51515 14.3663C8.57897 14.2215 8.67227 14.0915 8.78915 13.9845C8.90603 13.8775 9.04393 13.7958 9.19415 13.7446C9.34436 13.6934 9.50361 13.6738 9.66181 13.687C10.8767 13.687 12.0419 14.1677 12.901 15.0233C13.7601 15.879 14.2427 17.0394 14.2427 18.2495C14.2427 19.4595 13.7601 20.62 12.901 21.4756C12.0419 22.3313 10.8767 22.812 9.66181 22.812ZM58.8965 9.12481H70.3528C70.657 9.12481 70.9488 9.00443 71.164 8.79014C71.3791 8.57586 71.5 8.28522 71.5 7.98218C71.5 7.67914 71.3791 7.3885 71.164 7.17422C70.9488 6.95994 70.657 6.83955 70.3528 6.83955H58.8965C58.5922 6.83955 58.3004 6.95994 58.0852 7.17422C57.8701 7.3885 57.7492 7.67914 57.7492 7.98218C57.7492 8.28522 57.8701 8.57586 58.0852 8.79014C58.3004 9.00443 58.5922 9.12481 58.8965 9.12481ZM64.6246 22.8119C64.3274 22.8015 64.0458 22.6765 63.8394 22.4633C63.6329 22.2502 63.5176 21.9655 63.5177 21.6693V12.5443C63.5044 12.3867 63.5241 12.2281 63.5755 12.0785C63.6269 11.9289 63.7089 11.7916 63.8164 11.6752C63.9239 11.5588 64.0544 11.4658 64.1998 11.4023C64.3451 11.3387 64.5022 11.3059 64.6609 11.3059C64.8197 11.3059 64.9767 11.3387 65.1221 11.4023C65.2675 11.4658 65.398 11.5588 65.5055 11.6752C65.613 11.7916 65.695 11.9289 65.7464 12.0785C65.7978 12.2281 65.8175 12.3867 65.8042 12.5443V21.6693C65.8042 21.8221 65.7735 21.9733 65.7138 22.1141C65.6542 22.2549 65.5668 22.3823 65.4568 22.4888C65.3468 22.5954 65.2165 22.6788 65.0736 22.7343C64.9306 22.7898 64.7779 22.8162 64.6246 22.8119ZM45.1537 12.5447C44.2477 12.5447 43.362 12.2771 42.6087 11.7758C41.8554 11.2745 41.2682 10.5619 40.9215 9.72823C40.5748 8.89455 40.4841 7.97719 40.6608 7.09216C40.8376 6.20712 41.2739 5.39417 41.9145 4.75609C42.5552 4.11802 43.3714 3.68349 44.26 3.50744C45.1486 3.3314 46.0697 3.42175 46.9068 3.76708C47.7438 4.1124 48.4593 4.69718 48.9626 5.44748C49.466 6.19777 49.7346 7.07988 49.7346 7.98225C49.7346 9.19229 49.252 10.3528 48.3929 11.2084C47.5338 12.064 46.3687 12.5447 45.1537 12.5447ZM45.1537 5.70504C44.6996 5.70504 44.2556 5.83927 43.8781 6.09074C43.5006 6.3422 43.2066 6.69959 43.0331 7.11763C42.8597 7.53568 42.8147 7.99558 42.9039 8.4391C42.9931 8.88261 43.2125 9.28979 43.5342 9.60907C43.8559 9.92834 44.2654 10.1454 44.7111 10.2326C45.1567 10.3199 45.6183 10.2735 46.0374 10.0993C46.4565 9.92508 46.8143 9.63092 47.0655 9.25406C47.3166 8.87719 47.4498 8.43457 47.4482 7.98225C47.4482 7.68252 47.3888 7.38575 47.2734 7.10894C47.158 6.83213 46.9889 6.58073 46.7757 6.36917C46.5625 6.1576 46.3095 5.99003 46.0312 5.87606C45.7528 5.7621 45.4547 5.70398 45.1537 5.70504ZM44.3477 25.8946C44.5611 26.1086 44.8509 26.23 45.1537 26.2321C45.3044 26.2321 45.4536 26.2025 45.5928 26.1451C45.732 26.0877 45.8584 26.0035 45.965 25.8974C46.0715 25.7913 46.156 25.6654 46.2136 25.5267C46.2713 25.3881 46.301 25.2395 46.301 25.0895V18.2498C46.3143 18.0922 46.2946 17.9336 46.2432 17.784C46.1918 17.6344 46.1098 17.497 46.0023 17.3806C45.8949 17.2642 45.7643 17.1713 45.6189 17.1077C45.4736 17.0442 45.3165 17.0113 45.1578 17.0113C44.999 17.0113 44.842 17.0442 44.6966 17.1077C44.5512 17.1713 44.4207 17.2642 44.3132 17.3806C44.2058 17.497 44.1237 17.6344 44.0723 17.784C44.0209 17.9336 44.0013 18.0922 44.0146 18.2498V25.0895C44.0146 25.3911 44.1343 25.6805 44.3477 25.8946Z"
    fill="white"
  />
</svg>
