<svg width="40" height="40" viewBox="0 0 40 40" fill="none" xmlns="http://www.w3.org/2000/svg">
<path d="M20.0007 6.66683C12.6369 6.66683 6.66732 12.6364 6.66732 20.0002C6.66732 27.364 12.6369 33.3335 20.0007 33.3335C27.3644 33.3335 33.334 27.364 33.334 20.0002C33.334 12.6364 27.3644 6.66683 20.0007 6.66683ZM3.33398 20.0002C3.33398 10.7954 10.7959 3.3335 20.0007 3.3335C29.2054 3.3335 36.6673 10.7954 36.6673 20.0002C36.6673 29.2049 29.2054 36.6668 20.0007 36.6668C10.7959 36.6668 3.33398 29.2049 3.33398 20.0002ZM20.0007 10.0002C20.9211 10.0002 21.6673 10.7464 21.6673 11.6668V19.3098L26.1792 23.8217C26.83 24.4725 26.83 25.5278 26.1792 26.1787C25.5283 26.8295 24.473 26.8295 23.8221 26.1787L18.8221 21.1787C18.5096 20.8661 18.334 20.4422 18.334 20.0002V11.6668C18.334 10.7464 19.0802 10.0002 20.0007 10.0002Z" fill="#0066FF"/>
</svg>
