<svg width="24" height="24" viewBox="0 0 24 24" fill="none" xmlns="http://www.w3.org/2000/svg">
<path d="M6.64285 21C6.64285 21 4.5 19.2 4.5 16.05C4.5 12.9 7.5 11.8579 7.5 9.15789C7.5 6.45789 6 3 6 3" stroke="white" stroke-width="2" stroke-linecap="round"/>
<path d="M12.6429 21C12.6429 21 10.5 19.2 10.5 16.05C10.5 12.9 13.5 11.8579 13.5 9.15789C13.5 6.45789 12 3 12 3" stroke="white" stroke-width="2" stroke-linecap="round"/>
<path d="M18.6429 21C18.6429 21 16.5 19.2 16.5 16.05C16.5 12.9 19.5 11.8579 19.5 9.15789C19.5 6.45789 18 3 18 3" stroke="white" stroke-width="2" stroke-linecap="round"/>
</svg>
