<svg width="40" height="40" viewBox="0 0 40 40" fill="none" xmlns="http://www.w3.org/2000/svg">
<path d="M19.9993 3.3335C12.666 3.3335 6.66602 9.3335 6.66602 16.6668C6.66602 25.6668 18.3327 35.8335 18.8327 36.3335C19.166 36.5002 19.666 36.6668 19.9993 36.6668C20.3327 36.6668 20.8327 36.5002 21.166 36.3335C21.666 35.8335 33.3327 25.6668 33.3327 16.6668C33.3327 9.3335 27.3327 3.3335 19.9993 3.3335ZM19.9993 32.8335C16.4993 29.5002 9.99935 22.3335 9.99935 16.6668C9.99935 11.1668 14.4993 6.66683 19.9993 6.66683C25.4993 6.66683 29.9993 11.1668 29.9993 16.6668C29.9993 22.1668 23.4993 29.5002 19.9993 32.8335ZM19.9993 10.0002C16.3327 10.0002 13.3327 13.0002 13.3327 16.6668C13.3327 20.3335 16.3327 23.3335 19.9993 23.3335C23.666 23.3335 26.666 20.3335 26.666 16.6668C26.666 13.0002 23.666 10.0002 19.9993 10.0002ZM19.9993 20.0002C18.166 20.0002 16.666 18.5002 16.666 16.6668C16.666 14.8335 18.166 13.3335 19.9993 13.3335C21.8327 13.3335 23.3327 14.8335 23.3327 16.6668C23.3327 18.5002 21.8327 20.0002 19.9993 20.0002Z" fill="#0066FF"/>
</svg>
