<svg width="56" height="70" viewBox="0 0 56 70" fill="none" xmlns="http://www.w3.org/2000/svg">
<path fill-rule="evenodd" clip-rule="evenodd" d="M0 28C0 12.6 12.6 0 28 0C43.4 0 56 12.6 56 28C56 45.7338 34.4302 65.6245 30.901 68.8791C30.6689 69.0931 30.5148 69.2352 30.45 69.3C29.75 69.65 28.7 70 28 70C27.3 70 26.25 69.65 25.55 69.3C25.4852 69.2352 25.3311 69.0931 25.099 68.8791C21.5698 65.6245 0 45.7338 0 28ZM14 28C14 20.3 20.3 14 28 14C35.7 14 42 20.3 42 28C42 35.7 35.7 42 28 42C20.3 42 14 35.7 14 28Z" fill="#0066FF"/>
<path d="M14 28C14 20.3 20.3 14 28 14C35.7 14 42 20.3 42 28C42 35.7 35.7 42 28 42C20.3 42 14 35.7 14 28Z" fill="white"/>
</svg>
