<svg width="40" height="40" viewBox="0 0 40 40" fill="none" xmlns="http://www.w3.org/2000/svg">
<path d="M10 8.33333C10 6.49238 11.4924 5 13.3333 5H26.6667C28.5076 5 30 6.49238 30 8.33333V31.6667C30 33.5076 28.5076 35 26.6667 35H13.3333C11.4924 35 10 33.5076 10 31.6667V8.33333ZM26.6667 8.33333H13.3333V31.6667H26.6667V8.33333Z" fill="#0066FF"/>
<path d="M21.6667 28.3333C21.6667 29.2538 20.9205 30 20 30C19.0795 30 18.3333 29.2538 18.3333 28.3333C18.3333 27.4129 19.0795 26.6667 20 26.6667C20.9205 26.6667 21.6667 27.4129 21.6667 28.3333Z" fill="#0066FF"/>
</svg>
