<svg width="24" height="24" viewBox="0 0 24 24" fill="none" xmlns="http://www.w3.org/2000/svg">
<path fill-rule="evenodd" clip-rule="evenodd" d="M5.5 19.4519V5.2531L13.5 4.14783V20.5572L5.5 19.4519ZM3.5 4.38176C3.5 3.88236 3.86844 3.45951 4.36314 3.39117L14.3631 2.00959C14.9641 1.92656 15.5 2.39348 15.5 3.00018V3.85252H18.5C19.6046 3.85252 20.5 4.74795 20.5 5.85252V19.8525C20.5 20.9571 19.6046 21.8525 18.5 21.8525H15.4892C15.4108 22.3851 14.9143 22.7716 14.3631 22.6955L4.36314 21.3139C3.86844 21.2455 3.5 20.8227 3.5 20.3233V4.38176ZM15.5 19.8525H18.5V5.85252H15.5V19.8525Z" fill="white"/>
</svg>
