<svg width="24" height="24" viewBox="0 0 24 24" fill="none" xmlns="http://www.w3.org/2000/svg">
  <path
    d="M10.2594 17.8719C11.9344 17.8719 13.4984 17.3322 14.7698 16.4327L19.5526 21.1702C19.7746 21.3901 20.0672 21.5 20.3699 21.5C21.0258 21.5 21.5 21.0003 21.5 20.3606C21.5 20.0608 21.3991 19.7809 21.1771 19.561L16.4246 14.8435C17.4235 13.5442 18.0189 11.935 18.0189 10.186C18.0189 5.95818 14.5276 2.5 10.2594 2.5C5.98115 2.5 2.5 5.95818 2.5 10.186C2.5 14.4137 5.98115 17.8719 10.2594 17.8719ZM10.2594 16.2128C6.91954 16.2128 4.17499 13.4842 4.17499 10.186C4.17499 6.88769 6.91954 4.15913 10.2594 4.15913C13.5892 4.15913 16.3439 6.88769 16.3439 10.186C16.3439 13.4842 13.5892 16.2128 10.2594 16.2128Z"
    fill="white"
  />
</svg>
