<svg width="52" height="52" viewBox="0 0 52 52" fill="none" xmlns="http://www.w3.org/2000/svg">
  <rect width="52" height="52" rx="14" fill="url(#paint0_linear_1475_2691)" />
  <path
    d="M17.3516 28.1691L20.6615 37.3306C20.6615 37.3306 21.0754 38.1878 21.5185 38.1878C21.9616 38.1878 28.5525 31.3312 28.5525 31.3312L35.8818 17.1748L17.4697 25.8042L17.3516 28.1691Z"
    fill="#C8DAEA"
  />
  <path
    d="M21.7403 30.5187L21.1049 37.2716C21.1049 37.2716 20.8389 39.3408 22.9076 37.2716C24.9763 35.2024 26.9564 33.6068 26.9564 33.6068"
    fill="#A9C6D8"
  />
  <path
    d="M17.4124 28.496L10.6037 26.2776C10.6037 26.2776 9.78997 25.9474 10.052 25.1988C10.1059 25.0444 10.2147 24.9131 10.5402 24.6873C12.0488 23.6358 38.4638 14.1415 38.4638 14.1415C38.4638 14.1415 39.2096 13.8902 39.6495 14.0574C39.7583 14.0911 39.8562 14.153 39.9332 14.237C40.0102 14.3209 40.0635 14.4238 40.0877 14.5351C40.1352 14.7317 40.1551 14.934 40.1468 15.1361C40.1447 15.311 40.1235 15.473 40.1075 15.7271C39.9466 18.3229 35.1322 37.6959 35.1322 37.6959C35.1322 37.6959 34.8441 38.8295 33.8121 38.8683C33.5585 38.8765 33.3058 38.8336 33.0691 38.742C32.8325 38.6505 32.6167 38.5122 32.4346 38.3355C30.4094 36.5934 23.4095 31.8892 21.8628 30.8546C21.8279 30.8308 21.7985 30.7999 21.7766 30.7638C21.7547 30.7277 21.7408 30.6873 21.7358 30.6454C21.7142 30.5363 21.8328 30.4013 21.8328 30.4013C21.8328 30.4013 34.0213 19.5672 34.3457 18.4298C34.3708 18.3417 34.2759 18.2982 34.1485 18.3368C33.339 18.6347 19.3054 27.497 17.7565 28.4751C17.645 28.5088 17.5272 28.516 17.4124 28.496Z"
    fill="white"
  />
  <defs>
    <linearGradient id="paint0_linear_1475_2691" x1="26" y1="0" x2="26" y2="52" gradientUnits="userSpaceOnUse">
      <stop stop-color="#38B1E3" />
      <stop offset="1" stop-color="#1E95D3" />
    </linearGradient>
  </defs>
</svg>
