<svg width="24" height="24" viewBox="0 0 24 24" fill="none" xmlns="http://www.w3.org/2000/svg">
<path fill-rule="evenodd" clip-rule="evenodd" d="M9.33383 13.0181L10 12.4218V11.5278V7C10 5.89543 10.8954 5 12 5C13.1046 5 14 5.89543 14 7V11.5278V12.4218L14.6662 13.0181C15.4877 13.7533 16 14.8155 16 16C16 18.2091 14.2091 20 12 20C9.79086 20 8 18.2091 8 16C8 14.8155 8.5123 13.7533 9.33383 13.0181ZM12 3C9.79086 3 8 4.79086 8 7V11.5278C6.7725 12.6264 6 14.223 6 16C6 19.3137 8.68629 22 12 22C15.3137 22 18 19.3137 18 16C18 14.223 17.2275 12.6264 16 11.5278V7C16 4.79086 14.2091 3 12 3ZM11 10C11 9.44772 11.4477 9 12 9C12.5523 9 13 9.44772 13 10V13.1707C14.1652 13.5825 15 14.6938 15 16C15 17.6569 13.6569 19 12 19C10.3431 19 9 17.6569 9 16C9 14.6938 9.83481 13.5825 11 13.1707V10Z" fill="white"/>
</svg>
