<svg width="40" height="40" viewBox="0 0 40 40" fill="none" xmlns="http://www.w3.org/2000/svg">
<path d="M16.6673 6.66683C12.9854 6.66683 10.0007 9.6516 10.0007 13.3335C10.0007 17.0154 12.9854 20.0002 16.6673 20.0002C20.3492 20.0002 23.334 17.0154 23.334 13.3335C23.334 9.6516 20.3492 6.66683 16.6673 6.66683ZM6.66732 13.3335C6.66732 7.81065 11.1445 3.3335 16.6673 3.3335C22.1902 3.3335 26.6673 7.81065 26.6673 13.3335C26.6673 18.8563 22.1902 23.3335 16.6673 23.3335C11.1445 23.3335 6.66732 18.8563 6.66732 13.3335ZM36.1079 18.7545C36.7959 19.366 36.8579 20.4195 36.2463 21.1074L31.8019 26.1074C31.4856 26.4633 31.0323 26.6668 30.5562 26.6668C30.0801 26.6668 29.6268 26.4633 29.3105 26.1074L27.0883 23.6074C26.4768 22.9195 26.5387 21.866 27.2267 21.2545C27.9147 20.643 28.9681 20.7049 29.5797 21.3929L30.5562 22.4915L33.755 18.8929C34.3665 18.2049 35.42 18.143 36.1079 18.7545ZM10.834 30.0002C8.73489 30.0002 6.66732 32.0227 6.66732 35.0002C6.66732 35.9206 5.92113 36.6668 5.00065 36.6668C4.08018 36.6668 3.33398 35.9206 3.33398 35.0002C3.33398 30.6138 6.48976 26.6668 10.834 26.6668H22.5007C26.8449 26.6668 30.0007 30.6138 30.0007 35.0002C30.0007 35.9206 29.2545 36.6668 28.334 36.6668C27.4135 36.6668 26.6673 35.9206 26.6673 35.0002C26.6673 32.0227 24.5998 30.0002 22.5007 30.0002H10.834Z" fill="#0066FF"/>
</svg>
