<svg width="51" height="51" viewBox="0 0 51 51" fill="none" xmlns="http://www.w3.org/2000/svg">
<path fill-rule="evenodd" clip-rule="evenodd" d="M10.2501 42.8187L9.12785 44.1136C8.86886 44.3726 8.52354 44.3726 8.26454 44.2C8.08856 44.024 7.91257 43.858 7.73997 43.6951L7.73992 43.6951L7.73988 43.695C7.40449 43.3786 7.08189 43.0743 6.79692 42.7323C-2.69945 32.3727 -2.09513 16.2288 8.26454 6.73247C18.6242 -2.7639 34.6817 -2.15959 44.2644 8.20009C53.7608 18.5598 53.1565 34.6173 42.7968 44.2C42.5378 44.3726 42.1062 44.3726 41.8472 44.1136L40.7249 42.8187C40.4659 42.5597 40.4659 42.128 40.7249 41.869C41.0092 41.6416 41.2561 41.3766 41.5149 41.0989L41.515 41.0987L41.5151 41.0987C41.6491 40.9549 41.7863 40.8076 41.9335 40.6604C50.3939 31.5957 49.7896 17.4375 40.7249 8.97707C31.6601 0.516665 17.5019 1.12098 9.04152 10.1857C0.581118 19.2504 1.18543 33.495 10.2501 41.869C10.5091 42.128 10.5091 42.5597 10.2501 42.8187ZM25.4428 10.2721C17.0688 10.2721 10.2487 17.0922 10.2487 25.4663C10.2487 29.6965 12.0616 33.754 15.0832 36.6029C15.3422 36.8619 15.3422 37.2936 15.0832 37.5526L13.9609 38.8475C13.7019 39.1065 13.2702 39.1065 13.0112 38.8475C12.777 38.6719 12.5826 38.4565 12.4009 38.2553C12.3146 38.1599 12.2313 38.0676 12.1479 37.9842C5.32781 30.6461 5.75946 19.1641 13.0976 12.344C20.4357 5.5239 32.004 5.86922 38.8241 13.2073C45.6442 20.5454 45.2989 32.0274 37.9608 38.9338C37.7018 39.1928 37.2701 39.1065 37.0111 38.8475L35.8888 37.5526C35.6299 37.2936 35.6299 36.8619 35.8888 36.6029C38.9104 33.754 40.637 29.6965 40.637 25.5526C40.637 17.1785 33.8169 10.2721 25.4428 10.2721ZM17.5018 25.4663C17.5018 21.0634 21.0413 17.5238 25.4442 17.5238C29.8471 17.5238 33.3866 21.0634 33.3866 25.4663C33.3866 27.6245 32.5233 29.6101 30.9694 31.1641C30.7104 31.4231 30.7104 31.8547 30.9694 32.1137L32.0917 33.4087C32.3506 33.6677 32.7823 33.6677 33.0413 33.4087C37.3578 29.1785 37.5305 22.272 33.3003 17.8692C29.0701 13.4663 22.1636 13.38 17.7608 17.6102C13.3579 21.8404 13.2716 28.7468 17.5018 33.1497L17.7608 33.4087C18.0198 33.6677 18.4514 33.6677 18.7104 33.4087L19.8327 32.1137C20.0917 31.8547 20.0917 31.4231 19.8327 31.1641C18.3651 29.6965 17.5018 27.6245 17.5018 25.4663ZM26.3945 31.3367L41.416 48.4301C41.5887 48.6028 41.675 48.8618 41.675 49.1208C41.675 49.7251 41.1571 50.1567 40.6391 50.1567H10.1644C9.99169 50.1567 9.7327 50.0704 9.56004 49.8978C9.12839 49.4661 9.12839 48.8618 9.47371 48.4301L24.6679 31.3367L24.7542 31.2503C25.2722 30.8187 25.9629 30.8187 26.3945 31.3367Z" fill="black"/>
</svg>
