<svg width="366" height="262" viewBox="0 0 366 262" fill="none" xmlns="http://www.w3.org/2000/svg">
  <path
    d="M2.82 262C3.42947 260.408 3.78544 258.833 4.40341 257.266L4.41654 257.233C8.54329 246.768 16.4067 236.972 16.4067 224.217C16.4067 211.45 12.5251 201.592 8.40341 191.169C4.28173 180.746 -5.59296e-07 169.857 0 155.971C5.58987e-07 142.092 4.26701 131.272 8.39656 120.801L8.41657 120.75C12.5433 110.286 16.4067 100.489 16.4067 87.7349C16.4067 74.9671 12.5251 65.109 8.40341 54.6755C4.28174 44.242 4.9379e-06 33.3742 5.4972e-06 19.4882C5.78686e-06 12.2966 1.14578 5.92622 2.82447 0H8.06732C6.24199 5.98628 5.00204 12.2626 5.00204 19.4882C5.00204 32.2391 8.88333 42.088 12.989 52.5062L13.0253 52.5984C17.1309 63.0164 21.4087 73.8714 21.4087 87.7349C21.4087 101.613 17.1417 112.433 13.0122 122.905L12.9922 122.955C8.86542 133.42 5.00203 143.216 5.00203 155.971C5.00203 168.722 8.8833 178.57 12.9889 188.989L13.0253 189.081C17.1309 199.499 21.4087 210.354 21.4087 224.217C21.4087 238.096 13.1417 248.916 9.01214 259.387L8.99212 259.438C8.65385 260.296 8.40275 261.149 8.07 262H2.82Z"
    fill="white"
  />
  <path
    d="M32.71 262H27.47C28.0795 260.408 28.4058 258.833 29.0238 257.266C33.3465 246.301 41.0271 236.509 41.0271 224.217C41.0271 211.456 37.1395 201.602 33.0302 191.185L33.0238 191.169C28.9121 180.746 24.6204 169.857 24.6204 155.971C24.6204 142.085 28.8921 131.26 33.0638 120.773C37.2355 110.285 41.0671 100.492 41.0671 87.724C41.0671 74.9732 37.1858 65.1243 33.0802 54.7061L33.0438 54.6138C28.9382 44.1958 24.6604 33.3408 24.6604 19.4773C24.6604 12.2793 25.7975 5.92144 27.4739 0H32.7136C30.8892 5.98628 29.6524 12.2626 29.6524 19.4882C29.6524 32.256 33.534 42.114 37.6557 52.5476C41.7774 62.9811 46.0691 73.8489 46.0691 87.7349C46.0691 101.621 41.7974 112.445 37.6557 122.922C33.514 133.399 29.6524 143.203 29.6524 155.971C29.6524 168.738 33.534 178.597 37.6557 189.03C41.7774 199.464 46.0691 210.331 46.0691 224.217C46.0691 238.103 37.7974 248.928 33.6557 259.405C33.3121 260.274 33.0476 261.138 32.71 262Z"
    fill="white"
  />
  <path
    d="M57.3 262H52.06C52.6695 260.408 53.0164 258.833 53.6344 257.266L53.6475 257.233C57.7742 246.768 65.6376 236.972 65.6376 224.217C65.6376 211.456 61.7501 201.602 57.6408 191.185L57.6344 191.169C53.5227 180.746 49.231 169.857 49.231 155.971C49.231 142.092 53.498 131.272 57.6275 120.801L57.6475 120.75C61.7743 110.286 65.6376 100.489 65.6376 87.7349C65.6376 74.984 61.7563 65.1351 57.6507 54.7169L57.6143 54.6246C53.5088 44.2066 49.231 33.3516 49.231 19.4882C49.231 12.2966 50.3767 5.92622 52.0554 0H57.2983C55.4729 5.98628 54.233 12.2626 54.233 19.4882C54.233 32.256 58.1146 42.114 62.2362 52.5476C66.3579 62.9811 70.6397 73.8489 70.6396 87.7349C70.6396 101.613 66.3727 112.433 62.2431 122.905L62.2231 122.955C58.0964 133.42 54.233 143.216 54.233 155.971C54.233 168.738 58.1146 178.597 62.2362 189.03C66.3579 199.464 70.6396 210.331 70.6396 224.217C70.6396 238.096 62.3726 248.916 58.2431 259.387L58.2231 259.438C57.8848 260.296 57.6328 261.149 57.3 262Z"
    fill="white"
  />
  <path
    d="M81.91 262H76.66C77.2695 260.408 77.626 258.833 78.244 257.266L78.2571 257.233C82.3839 246.768 90.2472 236.972 90.2472 224.217C90.2472 211.45 86.3656 201.592 82.244 191.169C78.1223 180.746 73.8406 169.857 73.8406 155.971C73.8406 142.085 78.0823 131.26 82.244 120.773C86.4057 110.285 90.2472 100.492 90.2472 87.724C90.2472 74.9563 86.3657 65.0982 82.244 54.6647C78.1223 44.2311 73.8406 33.3633 73.8406 19.4773C73.8406 12.2793 74.9803 5.92144 76.6579 0H81.9079C80.0826 5.98628 78.8426 12.2626 78.8426 19.4882C78.8426 32.2391 82.7239 42.088 86.8295 52.5062L86.8659 52.5985C90.9715 63.0164 95.2493 73.8714 95.2493 87.7349C95.2493 101.613 90.9823 112.433 86.8527 122.905L86.8327 122.955C82.706 133.42 78.8426 143.217 78.8426 155.971C78.8426 168.722 82.7239 178.57 86.8295 188.989L86.8659 189.081C90.9715 199.499 95.2493 210.354 95.2493 224.217C95.2493 238.096 86.9822 248.916 82.8527 259.387L82.8327 259.438C82.4944 260.296 82.2428 261.149 81.91 262Z"
    fill="white"
  />
  <path
    d="M106.52 262H101.28C101.883 260.425 102.234 258.867 102.846 257.316L102.878 257.233C107.005 246.768 114.869 236.972 114.869 224.217C114.869 211.456 110.981 201.602 106.872 191.185L106.852 191.135C102.744 180.723 98.4519 169.842 98.4519 155.971C98.4519 142.118 102.713 131.312 106.836 120.858L106.878 120.75C111.005 110.286 114.869 100.489 114.869 87.7349C114.869 74.984 110.987 65.1351 106.882 54.7169L106.823 54.5679C102.724 44.1673 98.4519 33.3265 98.4519 19.4882C98.4519 12.2966 99.6003 5.92622 101.282 0H106.515C104.691 5.98628 103.454 12.2626 103.454 19.4882C103.454 32.2391 107.335 42.0879 111.441 52.5061L111.5 52.6551C115.598 63.0558 119.871 73.8966 119.871 87.7349C119.871 101.621 115.599 112.445 111.457 122.922C107.315 133.399 103.454 143.203 103.454 155.971C103.454 168.722 107.335 178.57 111.441 188.989L111.5 189.138C115.598 199.538 119.871 210.379 119.871 224.217C119.871 238.103 111.599 248.928 107.457 259.405C107.114 260.274 106.858 261.138 106.52 262Z"
    fill="white"
  />
  <path
    d="M131.17 262H125.93C126.539 260.408 126.886 258.833 127.504 257.266L127.517 257.233C131.644 246.768 139.507 236.972 139.507 224.217C139.507 211.457 135.62 201.602 131.511 191.186L131.504 191.169C127.393 180.746 123.101 169.857 123.101 155.971C123.101 142.093 127.368 131.273 131.497 120.801L131.504 120.783L131.517 120.75C135.644 110.286 139.507 100.489 139.507 87.7349C139.507 74.984 135.626 65.1351 131.521 54.7169L131.484 54.6245C127.379 44.2066 123.101 33.3516 123.101 19.4882C123.101 12.2966 124.247 5.92622 125.925 0H131.168C129.343 5.98628 128.103 12.2626 128.103 19.4882C128.103 32.256 131.984 42.114 136.106 52.5476C140.228 62.9811 144.51 73.8489 144.51 87.7349C144.51 101.439 140.319 112.162 136.267 122.532L135.915 123.433C131.884 133.747 128.103 143.423 128.103 155.992C128.103 168.76 131.984 178.618 136.106 189.052C140.228 199.485 144.51 210.353 144.51 224.239C144.51 237.861 136.37 248.475 132.34 258.805L131.877 259.992C131.615 260.664 131.429 261.333 131.17 262Z"
    fill="white"
  />
  <path
    d="M155.78 262H150.53C151.139 260.408 151.466 258.833 152.084 257.266L152.097 257.233C156.224 246.768 164.087 236.972 164.087 224.217C164.087 211.45 160.206 201.592 156.084 191.169C151.962 180.746 147.68 169.857 147.68 155.971C147.68 142.085 151.952 131.26 156.114 120.773C160.276 110.285 164.117 100.492 164.117 87.724C164.117 74.9563 160.236 65.0982 156.114 54.6647C151.992 44.2311 147.71 33.3633 147.71 19.4773C147.71 12.2793 148.85 5.92144 150.528 0H155.778C153.952 5.98628 152.712 12.2626 152.712 19.4882C152.712 32.239 156.594 42.0879 160.699 52.5061L160.736 52.5983C164.841 63.0163 169.119 73.8714 169.119 87.7349C169.119 101.613 164.852 112.433 160.723 122.905L160.716 122.922L160.703 122.956C156.576 133.42 152.712 143.217 152.712 155.971C152.712 168.722 156.594 178.57 160.699 188.989L160.736 189.081C164.841 199.499 169.119 210.354 169.119 224.217C169.119 238.096 160.852 248.916 156.723 259.387L156.702 259.438C156.364 260.296 156.113 261.149 155.78 262Z"
    fill="white"
  />
  <path
    d="M180.35 262H175.12C175.723 260.425 176.073 258.867 176.684 257.316L176.717 257.233C180.844 246.768 188.707 236.972 188.707 224.217C188.707 211.457 184.82 201.602 180.711 191.186L180.704 191.169L180.691 191.135C176.583 180.723 172.291 169.842 172.291 155.971C172.291 142.118 176.552 131.312 180.674 120.858L180.717 120.75C184.844 110.286 188.707 100.489 188.707 87.7349C188.707 74.984 184.826 65.1351 180.72 54.7169L180.662 54.568C176.563 44.1673 172.291 33.3265 172.291 19.4882C172.291 12.2966 173.439 5.92622 175.12 0H180.354C178.529 5.98628 177.293 12.2626 177.293 19.4882C177.293 32.239 181.174 42.0879 185.279 52.5061L185.338 52.655C189.437 63.0557 193.709 73.8965 193.709 87.7349C193.709 101.621 189.437 112.445 185.296 122.922C181.154 133.399 177.293 143.203 177.293 155.971C177.293 168.722 181.174 178.57 185.279 188.989L185.338 189.138C189.437 199.538 193.709 210.379 193.709 224.217C193.709 238.103 185.437 248.928 181.296 259.405C180.952 260.274 180.688 261.138 180.35 262Z"
    fill="white"
  />
  <path
    d="M204.98 262H199.72C200.329 260.408 200.696 258.833 201.314 257.266L201.327 257.233C205.453 246.768 213.317 236.972 213.317 224.217C213.317 211.457 209.429 201.602 205.32 191.186L205.314 191.169C201.202 180.746 196.91 169.857 196.91 155.971C196.91 142.085 201.132 131.26 205.314 120.773C209.495 110.285 213.317 100.492 213.317 87.724C213.317 74.9732 209.436 65.1242 205.33 54.706L205.294 54.6138C201.188 44.1959 196.91 33.3408 196.91 19.4773C196.91 12.2793 198.045 5.92144 199.72 0H204.977C203.152 5.98628 201.912 12.2626 201.912 19.4882C201.912 32.256 205.794 42.114 209.915 52.5476C214.037 62.9811 218.319 73.8489 218.319 87.7349C218.319 101.613 214.052 112.433 209.922 122.905L209.902 122.955C205.776 133.42 201.912 143.216 201.912 155.971C201.912 168.738 205.794 178.597 209.915 189.03C214.037 199.464 218.319 210.331 218.319 224.217C218.319 238.096 210.052 248.916 205.922 259.387L205.902 259.438C205.564 260.296 205.313 261.149 204.98 262Z"
    fill="white"
  />
  <path
    d="M229.59 262H224.35C224.959 260.408 225.307 258.833 225.925 257.266L225.938 257.233C230.065 246.768 237.928 236.972 237.928 224.217C237.928 211.45 234.047 201.592 229.925 191.169C225.803 180.746 221.522 169.857 221.522 155.971C221.522 142.092 225.789 131.272 229.918 120.801L229.938 120.75C234.065 110.286 237.928 100.489 237.928 87.7349C237.928 74.9671 234.047 65.109 229.925 54.6755C225.803 44.242 221.522 33.3742 221.522 19.4882C221.522 12.2966 222.667 5.92622 224.346 0H229.589C227.764 5.98628 226.524 12.2626 226.524 19.4882C226.524 32.239 230.405 42.0879 234.511 52.5061L234.547 52.5983C238.653 63.0163 242.93 73.8714 242.93 87.7349C242.93 101.613 238.663 112.433 234.534 122.905L234.514 122.955C230.387 133.42 226.524 143.216 226.524 155.971C226.524 168.722 230.405 178.57 234.511 188.989L234.547 189.081C238.653 199.499 242.93 210.354 242.93 224.217C242.93 238.096 234.663 248.916 230.534 259.387L230.514 259.438C230.176 260.296 229.923 261.149 229.59 262Z"
    fill="white"
  />
  <path
    d="M254.22 262H248.98C249.583 260.425 249.933 258.867 250.544 257.316L250.577 257.233C254.704 246.768 262.567 236.972 262.567 224.217C262.567 211.456 258.68 201.602 254.571 191.186L254.551 191.135C250.443 180.723 246.151 169.842 246.151 155.971C246.151 142.118 250.412 131.312 254.535 120.858L254.577 120.75C258.704 110.286 262.567 100.489 262.567 87.7349C262.567 74.984 258.686 65.135 254.58 54.7168L254.522 54.568C250.423 44.1673 246.151 33.3265 246.151 19.4882C246.151 12.2966 247.299 5.92622 248.98 0H254.218C252.393 5.98628 251.153 12.2626 251.153 19.4882C251.153 32.2391 255.034 42.088 259.14 52.5062L259.198 52.6552C263.297 63.0559 267.569 73.8966 267.569 87.7349C267.569 101.465 263.364 112.202 259.295 122.59L259.01 123.316C254.953 133.674 251.153 143.376 251.153 155.992C251.153 168.743 255.034 178.592 259.14 189.01L259.156 189.052L259.198 189.16C263.297 199.56 267.569 210.401 267.569 224.239C267.569 237.886 259.414 248.513 255.368 258.861L254.971 259.877C254.694 260.587 254.494 261.295 254.22 262Z"
    fill="white"
  />
  <path
    d="M278.83 262H273.59C274.199 260.408 274.536 258.833 275.154 257.266C279.286 246.789 287.167 236.942 287.167 224.217C287.167 211.493 283.276 201.592 279.164 191.169C275.052 180.746 270.76 169.857 270.76 155.971C270.76 142.085 275.022 131.26 279.164 120.773C283.306 110.285 287.167 100.492 287.167 87.724C287.167 74.9732 283.286 65.1244 279.18 54.7062L279.144 54.6137C275.038 44.1957 270.76 33.3407 270.76 19.4773C270.76 12.2793 271.906 5.92144 273.586 0H278.828C277.003 5.98628 275.763 12.2626 275.763 19.4882C275.763 32.256 279.644 42.114 283.766 52.5476C287.887 62.9811 292.169 73.8489 292.169 87.7349C292.169 101.613 287.902 112.433 283.773 122.904L283.753 122.955C279.626 133.42 275.763 143.216 275.763 155.971C275.763 168.738 279.644 178.597 283.766 189.03C287.887 199.464 292.169 210.331 292.169 224.217C292.169 238.096 283.902 248.916 279.773 259.387L279.753 259.438C279.414 260.296 279.163 261.149 278.83 262Z"
    fill="white"
  />
  <path
    d="M303.43 262H298.19C298.799 260.408 299.146 258.833 299.764 257.266L299.777 257.232C303.904 246.768 311.767 236.972 311.767 224.217C311.767 211.45 307.885 201.592 303.764 191.169C299.642 180.746 295.36 169.857 295.36 155.971C295.36 142.093 299.627 131.273 303.757 120.801L303.764 120.783L303.777 120.75C307.904 110.286 311.767 100.489 311.767 87.7349C311.767 74.9671 307.885 65.109 303.764 54.6755C299.642 44.242 295.36 33.3742 295.36 19.4882C295.36 12.2881 296.509 5.92571 298.191 0H303.428C301.602 5.98628 300.362 12.2626 300.362 19.4882C300.362 32.2391 304.244 42.088 308.349 52.5062L308.386 52.5982C312.491 63.0162 316.769 73.8714 316.769 87.7349C316.769 101.613 312.502 112.433 308.372 122.905L308.366 122.922L308.353 122.955C304.226 133.42 300.362 143.217 300.362 155.971C300.362 168.722 304.244 178.57 308.349 188.989L308.386 189.081C312.491 199.499 316.769 210.354 316.769 224.217C316.769 238.096 308.502 248.916 304.373 259.387L304.366 259.405L304.353 259.438C304.014 260.296 303.763 261.149 303.43 262Z"
    fill="white"
  />
  <path
    d="M328.04 262H322.81C323.413 260.425 323.754 258.866 324.365 257.316L324.398 257.232C328.525 246.768 336.388 236.972 336.388 224.217C336.388 211.456 332.501 201.602 328.392 191.185L328.372 191.135C324.264 180.723 319.972 169.842 319.972 155.971C319.972 142.129 324.226 131.329 328.346 120.872L328.419 120.688C332.538 110.232 336.388 100.457 336.388 87.724C336.388 74.9732 332.507 65.1244 328.401 54.7062L328.343 54.557C324.244 44.1564 319.972 33.3156 319.972 19.4773C319.972 12.2793 321.122 5.92144 322.806 0H328.039C326.214 5.98628 324.974 12.2626 324.974 19.4882C324.974 32.2391 328.855 42.088 332.961 52.5062L333.019 52.6552C337.118 63.0559 341.39 73.8966 341.39 87.7349C341.39 101.588 337.129 112.394 333.006 122.848L332.977 122.922L332.964 122.955C328.837 133.42 324.974 143.217 324.974 155.971C324.974 168.722 328.855 178.57 332.961 188.989L333.019 189.138C337.118 199.538 341.39 210.379 341.39 224.217C341.39 238.071 333.129 248.876 329.006 259.33L328.964 259.438C328.626 260.296 328.373 261.149 328.04 262Z"
    fill="white"
  />
  <path
    d="M352.66 262H347.42C348.029 260.408 348.377 258.833 348.995 257.266L349.008 257.233C353.135 246.768 360.998 236.971 360.998 224.217C360.998 211.456 357.11 201.602 353.001 191.185L352.995 191.169C348.883 180.746 344.591 169.857 344.591 155.971C344.591 142.104 348.851 131.29 352.978 120.815L353.028 120.688C357.147 110.232 360.998 100.457 360.998 87.724C360.998 74.9732 357.117 65.1242 353.011 54.706L352.975 54.6137C348.869 44.1957 344.591 33.3407 344.591 19.4773C344.591 12.2793 345.739 5.92144 347.42 0H352.659C350.833 5.98628 349.593 12.2626 349.593 19.4882C349.593 32.256 353.475 42.114 357.597 52.5476C361.718 62.9811 366 73.8489 366 87.7349C366 101.613 361.733 112.433 357.604 122.904L357.597 122.922L357.583 122.955C353.457 133.42 349.593 143.217 349.593 155.971C349.593 168.738 353.475 178.597 357.597 189.03C361.718 199.464 366 210.331 366 224.217C366 238.096 357.733 248.916 353.604 259.387L353.597 259.405L353.583 259.438C353.245 260.296 352.993 261.149 352.66 262Z"
    fill="white"
  />
</svg>
