<svg width="36" height="35" viewBox="0 0 36 35" fill="none" xmlns="http://www.w3.org/2000/svg">
<path d="M10.9876 21.9752C17.0559 21.9752 21.9752 17.0559 21.9752 10.9876C21.9752 4.91931 17.0559 0 10.9876 0C4.91931 0 0 4.91931 0 10.9876C0 17.0559 4.91931 21.9752 10.9876 21.9752Z" fill="#4285F4"/>
<path d="M35.9997 12.0594C35.9997 13.293 34.9996 14.2927 33.7665 14.2927C32.5333 14.2927 31.5332 13.293 31.5332 12.0594C31.5332 10.8259 32.5333 9.82617 33.7665 9.82617C34.9996 9.82617 35.9997 10.8259 35.9997 12.0594Z" fill="#34A853"/>
<path d="M31.9799 17.5085C31.9799 19.9752 29.9803 21.9749 27.5134 21.9749C25.0463 21.9749 23.0469 19.9752 23.0469 17.5085C23.0469 15.0418 25.0464 13.042 27.5134 13.042C29.9804 13.042 31.9799 15.0418 31.9799 17.5085Z" fill="#EA4335"/>
<path d="M32.8739 29.0321C32.8739 31.9922 30.4746 34.3916 27.5141 34.3916C24.5537 34.3916 22.1543 31.9922 22.1543 29.0321C22.1543 26.0721 24.5536 23.6724 27.5141 23.6724C30.4746 23.6724 32.8739 26.0721 32.8739 29.0321Z" fill="#FBBC05"/>
</svg>
