<svg width="52" height="46" viewBox="0 0 52 46" fill="none" xmlns="http://www.w3.org/2000/svg">
<path d="M41.266 43.9998C41.6114 44.4315 41.6114 45.1221 41.1797 45.4674C41.0071 45.6401 40.7481 45.7264 40.4891 45.7264H10.1007C9.49637 45.7264 9.06472 45.2948 9.06472 44.6905C9.06472 44.4315 9.15105 44.1725 9.32371 43.9998L24.4316 26.6474C24.8632 26.1294 25.5539 26.1294 26.0719 26.561L26.1582 26.6474L41.266 43.9998ZM37.7265 34.4171L35.3092 31.5682H44.3739C45.1509 31.6545 45.8416 31.4819 46.5322 31.2229C46.9639 30.9639 47.3955 30.6186 47.5682 30.1869C47.9135 29.4963 47.9998 28.7193 47.9135 28.0287V6.87766C47.9998 6.10068 47.8272 5.41003 47.5682 4.71939C47.3092 4.28774 46.9639 3.85608 46.5322 3.68342C45.8416 3.3381 45.0646 3.25177 44.3739 3.3381H6.38846C5.61149 3.25177 4.92084 3.42443 4.2302 3.68342C3.79855 3.94241 3.3669 4.28774 3.19423 4.71939C2.84891 5.41003 2.76258 6.18701 2.84891 6.87766V27.9423C2.76258 28.7193 2.93524 29.4099 3.19423 30.1006C3.45323 30.5322 3.79855 30.9639 4.2302 31.1366C4.92084 31.4819 5.69782 31.5682 6.38846 31.4819H15.4532L13.0359 34.3308H7.25177C4.66185 34.3308 3.79855 34.0718 2.93524 33.5538C1.9856 33.0358 1.29496 32.3452 0.776974 31.3956C0.25899 30.4459 0 29.5826 0 27.079V7.65463C0 5.06471 0.25899 4.2014 0.776974 3.25177C1.29496 2.30213 1.9856 1.61149 2.93524 1.0935C3.88488 0.575518 4.74818 0.316528 7.25177 0.316528H43.6833C46.2732 0.316528 47.1365 0.575518 48.0862 1.0935C49.0358 1.61149 49.7264 2.30213 50.2444 3.25177C50.7624 4.2014 51.0214 5.06471 51.0214 7.65463V27.079C51.0214 29.6689 50.7624 30.5322 50.2444 31.3956C49.7264 32.3452 49.0358 33.0358 48.0862 33.5538C47.1365 34.0718 46.2732 34.3308 43.6833 34.3308L37.7265 34.4171Z" fill="black"/>
</svg>
