<svg width="56" height="46" viewBox="0 0 56 46" fill="none" xmlns="http://www.w3.org/2000/svg">
<path fill-rule="evenodd" clip-rule="evenodd" d="M13.7907 45.293C14.4819 44.4196 14.2532 43.143 13.3602 42.4773C7.42285 38.0514 3.57778 30.9747 3.57778 22.9999C3.57778 15.0251 7.42285 7.94843 13.3602 3.52256C14.2532 2.85694 14.4819 1.58035 13.7907 0.707021L13.6454 0.523398C13.3838 0.1928 12.9853 0 12.5637 0C12.2855 0 12.0132 0.0833613 11.7861 0.244017C4.65536 5.2887 0 13.6007 0 22.9999C0 32.3993 4.65546 40.7114 11.7863 45.756C12.0134 45.9167 12.2857 46 12.5638 46C12.9854 46 13.3837 45.8072 13.6453 45.4767L13.7907 45.293ZM16.6788 6.80223C17.3992 6.3042 18.3703 6.49375 18.9138 7.18049C19.5928 8.03844 19.3271 9.29813 18.4401 9.93867C14.3908 12.8628 11.7556 17.6236 11.7556 22.9999C11.7556 28.3763 14.3908 33.1371 18.4401 36.0612C19.3271 36.7018 19.5928 37.9615 18.9139 38.8194C18.3704 39.5062 17.3992 39.6957 16.6789 39.1977C11.5428 35.647 8.17778 29.7164 8.17778 22.9999C8.17778 16.2835 11.5427 10.3529 16.6788 6.80223ZM23.6344 13.1454C24.359 14.0609 23.9502 15.4328 22.9965 16.1063C20.8342 17.6332 19.4222 20.1517 19.4222 22.9999C19.4222 25.8482 20.8343 28.3667 22.9965 29.8936C23.9502 30.5671 24.359 31.939 23.6345 32.8545C23.1487 33.4684 22.298 33.6795 21.6289 33.2731C18.161 31.1667 15.8444 27.3538 15.8444 22.9999C15.8444 18.6461 18.161 14.8332 21.6288 12.7268C22.2979 12.3204 23.1486 12.5316 23.6344 13.1454ZM41.6652 45.293C40.974 44.4196 41.2027 43.143 42.0957 42.4773C48.0331 38.0514 51.8782 30.9747 51.8782 22.9999C51.8782 15.0251 48.0331 7.94843 42.0957 3.52256C41.2028 2.85694 40.9741 1.58035 41.6652 0.707021L41.8105 0.523398C42.0722 0.1928 42.4706 0 42.8922 0C43.1704 0 43.4427 0.0833613 43.6698 0.244017C50.8006 5.2887 55.4559 13.6007 55.4559 22.9999C55.4559 32.3993 50.8005 40.7114 43.6696 45.756C43.4425 45.9167 43.1702 46 42.8921 46C42.4706 46 42.0722 45.8072 41.8106 45.4767L41.6652 45.293ZM38.7771 6.80223C38.0568 6.3042 37.0856 6.49375 36.5421 7.18049C35.8632 8.03844 36.1289 9.29813 37.0159 9.93867C41.0651 12.8628 43.7004 17.6236 43.7004 22.9999C43.7004 28.3763 41.0651 33.1371 37.0158 36.0612C36.1288 36.7018 35.8631 37.9615 36.5421 38.8194C37.0856 39.5062 38.0567 39.6957 38.7771 39.1977C43.9132 35.647 47.2782 29.7164 47.2782 22.9999C47.2782 16.2835 43.9132 10.3529 38.7771 6.80223ZM31.8215 13.1454C31.097 14.0609 31.5058 15.4328 32.4595 16.1063C34.6217 17.6332 36.0337 20.1517 36.0337 22.9999C36.0337 25.8482 34.6217 28.3667 32.4594 29.8936C31.5057 30.5671 31.0969 31.939 31.8214 32.8545C32.3072 33.4684 33.158 33.6795 33.8271 33.2731C37.2949 31.1667 39.6115 27.3538 39.6115 22.9999C39.6115 18.6461 37.2949 14.8332 33.8271 12.7268C33.1581 12.3204 32.3073 12.5316 31.8215 13.1454ZM27.6007 26.5778C29.5766 26.5778 31.1784 24.976 31.1784 23C31.1784 21.0241 29.5766 19.4222 27.6007 19.4222C25.6247 19.4222 24.0229 21.0241 24.0229 23C24.0229 24.976 25.6247 26.5778 27.6007 26.5778Z" fill="black"/>
</svg>
