<svg width="24" height="25" viewBox="0 0 24 25" fill="none" xmlns="http://www.w3.org/2000/svg">
  <path
    d="M11.9609 22.4219C13.3216 22.4219 14.6009 22.1615 15.7988 21.6406C17.0033 21.1198 18.0645 20.4004 18.9824 19.4824C19.9004 18.5645 20.6198 17.5065 21.1406 16.3086C21.6615 15.1042 21.9219 13.8216 21.9219 12.4609C21.9219 11.1003 21.6615 9.82096 21.1406 8.62305C20.6198 7.41862 19.9004 6.35742 18.9824 5.43945C18.0645 4.52148 17.0033 3.80208 15.7988 3.28125C14.5944 2.76042 13.3118 2.5 11.9512 2.5C10.5905 2.5 9.30794 2.76042 8.10352 3.28125C6.9056 3.80208 5.84766 4.52148 4.92969 5.43945C4.01823 6.35742 3.30208 7.41862 2.78125 8.62305C2.26042 9.82096 2 11.1003 2 12.4609C2 13.8216 2.26042 15.1042 2.78125 16.3086C3.30208 17.5065 4.02148 18.5645 4.93945 19.4824C5.85742 20.4004 6.91536 21.1198 8.11328 21.6406C9.31771 22.1615 10.6003 22.4219 11.9609 22.4219ZM11.9609 20.7617C10.8086 20.7617 9.73112 20.5469 8.72852 20.1172C7.72591 19.6875 6.84375 19.0951 6.08203 18.3398C5.32682 17.5781 4.73438 16.696 4.30469 15.6934C3.88151 14.6908 3.66992 13.6133 3.66992 12.4609C3.66992 11.3086 3.88151 10.2311 4.30469 9.22852C4.73438 8.22591 5.32682 7.34375 6.08203 6.58203C6.83724 5.82031 7.71615 5.22786 8.71875 4.80469C9.72135 4.375 10.7988 4.16016 11.9512 4.16016C13.1035 4.16016 14.181 4.375 15.1836 4.80469C16.1927 5.22786 17.0749 5.82031 17.8301 6.58203C18.5918 7.34375 19.1875 8.22591 19.6172 9.22852C20.0469 10.2311 20.2617 11.3086 20.2617 12.4609C20.2617 13.6133 20.0469 14.6908 19.6172 15.6934C19.194 16.696 18.6016 17.5781 17.8398 18.3398C17.0781 19.0951 16.196 19.6875 15.1934 20.1172C14.1908 20.5469 13.1133 20.7617 11.9609 20.7617ZM8.13281 13.291H15.7891C16.0625 13.291 16.2839 13.2227 16.4531 13.0859C16.6289 12.9427 16.7168 12.7409 16.7168 12.4805C16.7168 12.2201 16.6322 12.0182 16.4629 11.875C16.3001 11.7253 16.0755 11.6504 15.7891 11.6504H8.13281C7.84635 11.6504 7.61849 11.7253 7.44922 11.875C7.27995 12.0182 7.19531 12.2201 7.19531 12.4805C7.19531 12.7409 7.2832 12.9427 7.45898 13.0859C7.63477 13.2227 7.85938 13.291 8.13281 13.291Z"
    fill="black"
  />
</svg>
