<svg width="24" height="25" viewBox="0 0 24 25" fill="none" xmlns="http://www.w3.org/2000/svg">
  <path
    d="M11.9609 22.4219C13.3216 22.4219 14.6009 22.1615 15.7988 21.6406C17.0033 21.1198 18.0645 20.4004 18.9824 19.4824C19.9004 18.5645 20.6198 17.5065 21.1406 16.3086C21.6615 15.1042 21.9219 13.8216 21.9219 12.4609C21.9219 11.1003 21.6615 9.82096 21.1406 8.62305C20.6198 7.41862 19.9004 6.35742 18.9824 5.43945C18.0645 4.52148 17.0033 3.80208 15.7988 3.28125C14.5944 2.76042 13.3118 2.5 11.9512 2.5C10.5905 2.5 9.30794 2.76042 8.10352 3.28125C6.9056 3.80208 5.84766 4.52148 4.92969 5.43945C4.01823 6.35742 3.30208 7.41862 2.78125 8.62305C2.26042 9.82096 2 11.1003 2 12.4609C2 13.8216 2.26042 15.1042 2.78125 16.3086C3.30208 17.5065 4.02148 18.5645 4.93945 19.4824C5.85742 20.4004 6.91536 21.1198 8.11328 21.6406C9.31771 22.1615 10.6003 22.4219 11.9609 22.4219ZM11.9609 20.7617C10.8086 20.7617 9.73112 20.5469 8.72852 20.1172C7.72591 19.6875 6.84375 19.0951 6.08203 18.3398C5.32682 17.5781 4.73438 16.696 4.30469 15.6934C3.88151 14.6908 3.66992 13.6133 3.66992 12.4609C3.66992 11.3086 3.88151 10.2311 4.30469 9.22852C4.73438 8.22591 5.32682 7.34375 6.08203 6.58203C6.83724 5.82031 7.71615 5.22786 8.71875 4.80469C9.72135 4.375 10.7988 4.16016 11.9512 4.16016C13.1035 4.16016 14.181 4.375 15.1836 4.80469C16.1927 5.22786 17.0749 5.82031 17.8301 6.58203C18.5918 7.34375 19.1875 8.22591 19.6172 9.22852C20.0469 10.2311 20.2617 11.3086 20.2617 12.4609C20.2617 13.6133 20.0469 14.6908 19.6172 15.6934C19.194 16.696 18.6016 17.5781 17.8398 18.3398C17.0781 19.0951 16.196 19.6875 15.1934 20.1172C14.1908 20.5469 13.1133 20.7617 11.9609 20.7617ZM7.42969 12.4609C7.42969 12.6953 7.50781 12.8874 7.66406 13.0371C7.82031 13.1868 8.02214 13.2617 8.26953 13.2617H11.1406V16.1426C11.1406 16.39 11.2155 16.5918 11.3652 16.748C11.515 16.8978 11.707 16.9727 11.9414 16.9727C12.1888 16.9727 12.3874 16.8978 12.5371 16.748C12.6934 16.5918 12.7715 16.39 12.7715 16.1426V13.2617H15.6523C15.8997 13.2617 16.0983 13.1868 16.248 13.0371C16.4043 12.8874 16.4824 12.6953 16.4824 12.4609C16.4824 12.2135 16.4043 12.015 16.248 11.8652C16.0983 11.709 15.8997 11.6309 15.6523 11.6309H12.7715V8.75977C12.7715 8.50586 12.6934 8.30404 12.5371 8.1543C12.3874 7.99805 12.1888 7.91992 11.9414 7.91992C11.707 7.91992 11.515 7.99805 11.3652 8.1543C11.2155 8.31055 11.1406 8.51237 11.1406 8.75977V11.6309H8.26953C8.01562 11.6309 7.81055 11.709 7.6543 11.8652C7.50456 12.015 7.42969 12.2135 7.42969 12.4609Z"
    fill="black"
  />
</svg>
